<?xml version="1.0" encoding="UTF-8"?><svg id="Layer_2" xmlns="http://www.w3.org/2000/svg" width="948" height="948" viewBox="0 0 948 948"><defs><style>.cls-1{fill:#fffdea;}.cls-2{fill:#1e1f23;}</style></defs><g id="Layer_1-2"><rect class="cls-1" x="9.35" y="5.47" width="929.3" height="929.3"/><path class="cls-2" d="m341.66,510.77c1.98,0,4-.49,5.85-1.53,11.67-6.53,22.87-14.18,33.3-22.73,23.74-19.46,42.96-43,57.13-69.96,3.08-5.87.83-13.12-5.04-16.21-5.87-3.08-13.12-.83-16.21,5.04-12.67,24.1-29.86,45.15-51.1,62.56-9.34,7.66-19.36,14.5-29.81,20.34-5.78,3.24-7.85,10.55-4.61,16.33,2.2,3.93,6.28,6.14,10.48,6.14Z"/><path class="cls-2" d="m540.85,440.02c12.52,4.99,25.51,8.89,38.61,11.59.82.17,1.63.25,2.43.25,5.58,0,10.57-3.91,11.74-9.58,1.34-6.49-2.84-12.84-9.33-14.17-11.72-2.41-23.35-5.9-34.56-10.37-25.52-10.17-48.27-25.04-67.64-44.17-4.71-4.66-12.31-4.62-16.97.1-4.66,4.71-4.61,12.31.1,16.97,21.66,21.41,47.1,38.03,75.62,49.4Z"/><path class="cls-2" d="m271.5,560.23c-3.96-5.31-11.48-6.41-16.79-2.45-21.82,16.28-46.42,27.85-73.1,34.39-24.93,6.12-50.36,7.5-75.57,4.11-6.56-.89-12.61,3.72-13.49,10.29-.88,6.57,3.73,12.61,10.29,13.49,10.04,1.35,20.1,2.02,30.15,2.02,18.2,0,36.39-2.21,54.33-6.61,29.82-7.32,57.31-20.26,81.72-38.46,5.31-3.96,6.41-11.48,2.45-16.79Z"/><path class="cls-2" d="m837.4,456.45c-23.67,9.3-48.69,14.02-74.37,14.02-27.47,0-54.11-5.38-79.19-15.98-6.1-2.58-13.15.27-15.73,6.38-2.58,6.1.27,13.15,6.38,15.73,28.05,11.86,57.84,17.88,88.53,17.88,28.69,0,56.67-5.28,83.15-15.68,6.17-2.42,9.2-9.39,6.78-15.56-2.42-6.17-9.39-9.2-15.56-6.78Z"/><path class="cls-2" d="m674.72,672.1c-9.42,5.54-28.46,14.62-50.14,13.17-10.86-.73-19.85-3.88-21.55-4.5-7.12-2.62-13.82-6.33-19.91-11-30.41-23.35-38.55-65.64-19.02-98.5l8.97-13.11,9.03-13.77,12.58-18.39.16-.23c32.86-50.51,50.23-109.2,50.23-169.72,0-64.83-19.72-126.98-57.02-179.74-3.83-5.41-11.32-6.7-16.73-2.87-5.41,3.83-6.7,11.32-2.87,16.73,34.42,48.68,52.62,106.04,52.62,165.88,0,55.81-16,109.93-46.27,156.52l-12.57,18.37-9.04,13.78-9.1,13.31-.38.6c-26.04,43.37-15.37,99.34,24.81,130.19,8.01,6.15,16.84,11.02,26.22,14.48,3.14,1.16,14.45,5.01,28.25,5.93,2.1.14,4.17.21,6.23.21,25.4,0,46.76-10.21,57.68-16.64,5.71-3.36,7.62-10.71,4.26-16.43-3.36-5.71-10.72-7.62-16.43-4.26Z"/><path class="cls-2" d="m427.28,612.68l-25.25-17.24-3.93-2.65c-77.79-53.8-124.23-142.3-124.23-236.75,0-59.84,18.19-117.2,52.62-165.88,3.83-5.41,2.54-12.9-2.87-16.73-5.41-3.83-12.9-2.54-16.73,2.87-37.3,52.75-57.02,114.91-57.02,179.74,0,102.35,50.33,198.25,134.63,256.53l24.8,16.92,3.84,2.59c37.56,28.22,46.76,81.04,20.93,120.38-4.97,7.58-11.01,14.31-17.93,20-4.03,3.31-25.65,19.87-55.67,20.3-.4,0-.8,0-1.2,0-44.09,0-71.81-35.55-74.85-39.64-3.96-5.32-11.47-6.42-16.79-2.47-5.32,3.96-6.42,11.47-2.47,16.79,6.17,8.3,39.47,49.32,94.06,49.32.53,0,1.06,0,1.6-.01,37.06-.54,63.38-19.86,70.56-25.77,8.79-7.23,16.45-15.77,22.75-25.37,32.83-50.01,21.03-117.19-26.86-152.95Z"/><path class="cls-2" d="m936,948H12c-6.63,0-12-5.37-12-12V12C0,5.37,5.37,0,12,0h924c6.63,0,12,5.37,12,12v924c0,6.63-5.37,12-12,12Zm-912-24h900V24H24v900Z"/></g></svg>